<?xml version="1.0" encoding="UTF-8" standalone="no"?>
<!-- Created with Inkscape (http://www.inkscape.org/) -->

<svg
   xmlns:dc="http://purl.org/dc/elements/1.1/"
   xmlns:cc="http://creativecommons.org/ns#"
   xmlns:rdf="http://www.w3.org/1999/02/22-rdf-syntax-ns#"
   xmlns:svg="http://www.w3.org/2000/svg"
   xmlns="http://www.w3.org/2000/svg"
   xmlns:sodipodi="http://sodipodi.sourceforge.net/DTD/sodipodi-0.dtd"
   xmlns:inkscape="http://www.inkscape.org/namespaces/inkscape"
   width="270mm"
   height="40mm"
   viewBox="0 0 270 40"
   version="1.1"
   id="svg8"
   inkscape:version="0.92.4 (5da689c313, 2019-01-14)"
   sodipodi:docname="logo.svg">
  <defs
     id="defs2" />
  <sodipodi:namedview
     id="base"
     pagecolor="#ffffff"
     bordercolor="#666666"
     borderopacity="1.0"
     inkscape:pageopacity="0.0"
     inkscape:pageshadow="2"
     inkscape:zoom="0.64"
     inkscape:cx="683.07931"
     inkscape:cy="150.30852"
     inkscape:document-units="mm"
     inkscape:current-layer="layer1"
     showgrid="false"
     inkscape:window-width="1280"
     inkscape:window-height="897"
     inkscape:window-x="-8"
     inkscape:window-y="-8"
     inkscape:window-maximized="1" />
  <metadata
     id="metadata5">
    <rdf:RDF>
      <cc:Work
         rdf:about="">
        <dc:format>image/svg+xml</dc:format>
        <dc:type
           rdf:resource="http://purl.org/dc/dcmitype/StillImage" />
        <dc:title></dc:title>
      </cc:Work>
    </rdf:RDF>
  </metadata>
  <g
     inkscape:label="Capa 1"
     inkscape:groupmode="layer"
     id="layer1"
     transform="translate(0,-257)">
    <g
       id="T">
      <rect
         y="257"
         x="10"
         height="40"
         width="10"
         id="rect837"
         style="opacity:0.98000004;fill:#f0dc4f;fill-opacity:1;stroke:none;stroke-width:0;stroke-linecap:round;stroke-miterlimit:4;stroke-dasharray:none;stroke-opacity:1" />
      <rect
         y="257"
         x="0"
         height="10"
         width="30"
         id="rect837-1"
         style="opacity:0.98000004;fill:#f0dc4f;fill-opacity:1;stroke:none;stroke-width:0;stroke-linecap:round;stroke-miterlimit:4;stroke-dasharray:none;stroke-opacity:1" />
    </g>
    <g
       id="U">
      <rect
         style="opacity:0.98000004;fill:#f0dc4f;fill-opacity:1;stroke:none;stroke-width:0;stroke-linecap:round;stroke-miterlimit:4;stroke-dasharray:none;stroke-opacity:1"
         id="rect837-7"
         width="10"
         height="30"
         x="30"
         y="257" />
      <rect
         style="opacity:0.98000004;fill:#f0dc4f;fill-opacity:1;stroke:none;stroke-width:0;stroke-linecap:round;stroke-miterlimit:4;stroke-dasharray:none;stroke-opacity:1"
         id="rect837-4"
         width="10"
         height="30"
         x="50"
         y="257" />
      <path
         inkscape:connector-curvature="0"
         id="path885"
         d="m 30,287 c 0,0 -0.135643,9.93318 14.999999,10.00001 C 60.135642,297.06681 59.999998,287 59.999998,287 H 50 c 0,0 0,4.99999 -5.000001,4.99999 -5,0 -5,-4.99999 -5,-4.99999 z"
         style="fill:#f0dc4f;fill-opacity:0.98039216;stroke:none;stroke-width:0.26458332px;stroke-linecap:butt;stroke-linejoin:miter;stroke-opacity:1" />
    </g>
    <g
       transform="translate(60)"
       id="R">
      <rect
         y="257"
         x="7.1054274e-15"
         height="40"
         width="10"
         id="rect837-76"
         style="opacity:0.98000004;fill:#f0dc4f;fill-opacity:1;stroke:none;stroke-width:0;stroke-linecap:round;stroke-miterlimit:4;stroke-dasharray:none;stroke-opacity:1" />
      <path
         style="fill:#f0dc4f;fill-opacity:0.98039216;stroke:none;stroke-width:0.26458332px;stroke-linecap:butt;stroke-linejoin:miter;stroke-opacity:1"
         d="m 9.9999993,257 c 0,0 19.8526767,-0.0145 19.9999997,10.00001 0.147322,10.0145 -19.9999997,9.99998 -19.9999997,9.99998 V 272 c 0,0 9.9999987,0 9.9999987,-4.99999 C 19.999998,262 9.9999993,262 9.9999993,262 Z"
         id="path975"
         inkscape:connector-curvature="0" />
      <rect
         y="206.37486"
         x="-187.46384"
         height="24"
         width="10"
         id="rect837-76-8"
         style="opacity:0.98000004;fill:#f0dc4f;fill-opacity:1;stroke:none;stroke-width:0;stroke-linecap:round;stroke-miterlimit:4;stroke-dasharray:none;stroke-opacity:1"
         transform="rotate(-42.798085)" />
    </g>
    <rect
       style="opacity:0.98000004;fill:#f0dc4f;fill-opacity:1;stroke:none;stroke-width:0;stroke-linecap:round;stroke-miterlimit:4;stroke-dasharray:none;stroke-opacity:1"
       id="rect837-5"
       width="10"
       height="40"
       x="90"
       y="257" />
    <path
       style="fill:#f0dc4f;fill-opacity:0.98039216;stroke:none;stroke-width:0.26458332px;stroke-linecap:butt;stroke-linejoin:miter;stroke-opacity:1"
       d="m 130,257 c 0,0 -30,0 -30,10.00001 0,9.99998 20,9.99998 20,19.99998 0,10.00001 -20,0 -20,0 V 297 c 0,0 30,0 30,-10.00001 0,-10 -20,-10 -20,-19.99998 0,-10.00001 20,0 20,0 z"
       id="path1107"
       inkscape:connector-curvature="0" />
    <path
       style="fill:#f1dc4f;fill-opacity:0.98039216;stroke:none;stroke-width:0.26458332px;stroke-linecap:butt;stroke-linejoin:miter;stroke-opacity:1"
       d="m 130,297 v -40 h 10 L 150,267.00001 160,257 h 10 v 40 h -10 v -29.99999 l -10,9.99998 -10,-9.99998 V 297 Z"
       id="path1167"
       inkscape:connector-curvature="0" />
    <path
       style="opacity:0.98000004;fill:#000080;fill-opacity:1;stroke:none;stroke-width:0;stroke-linecap:round;stroke-miterlimit:4;stroke-dasharray:none;stroke-opacity:1"
       d="m 189.92185,257 a 20,20 0 0 0 -19.92178,20.05201 20,20 0 0 0 20.02617,19.94762 20,20 0 0 0 19.97396,-19.99982 l -5.1e-4,-0.10387 A 20,20 0 0 0 189.92185,257 Z m 0.0393,9.99991 a 10,10 0 0 1 10.03865,9.94771 l 5.2e-4,0.0522 a 10,10 0 0 1 -9.98698,9.99991 A 10,10 0 0 1 180,277.02566 a 10,10 0 0 1 9.96115,-10.02574 z"
       id="path817"
       inkscape:connector-curvature="0" />
    <g
       transform="translate(210)"
       id="R-4"
       style="fill:#000080;fill-opacity:0.98039216">
      <rect
         y="257"
         x="7.1054274e-15"
         height="40"
         width="10"
         id="rect837-76-0"
         style="opacity:0.98000004;fill:#000080;fill-opacity:0.98039216;stroke:none;stroke-width:0;stroke-linecap:round;stroke-miterlimit:4;stroke-dasharray:none;stroke-opacity:1" />
      <path
         style="fill:#000080;fill-opacity:0.98039216;stroke:none;stroke-width:0.26458332px;stroke-linecap:butt;stroke-linejoin:miter;stroke-opacity:1"
         d="m 9.9999993,257 c 0,0 19.8526767,-0.0145 19.9999997,10.00001 0.147322,10.0145 -19.9999997,9.99998 -19.9999997,9.99998 V 272 c 0,0 9.9999987,0 9.9999987,-4.99999 C 19.999998,262 9.9999993,262 9.9999993,262 Z"
         id="path975-9"
         inkscape:connector-curvature="0" />
      <rect
         y="206.37486"
         x="-187.46384"
         height="24"
         width="10"
         id="rect837-76-8-1"
         style="opacity:0.98000004;fill:#000080;fill-opacity:0.98039216;stroke:none;stroke-width:0;stroke-linecap:round;stroke-miterlimit:4;stroke-dasharray:none;stroke-opacity:1"
         transform="rotate(-42.798085)" />
    </g>
    <g
       transform="translate(240)"
       id="T-1"
       style="fill:#000080;fill-opacity:0.96078431">
      <rect
         y="257"
         x="10"
         height="40"
         width="10"
         id="rect837-15"
         style="opacity:0.98000004;fill:#000080;fill-opacity:0.96078431;stroke:none;stroke-width:0;stroke-linecap:round;stroke-miterlimit:4;stroke-dasharray:none;stroke-opacity:1" />
      <rect
         y="257"
         x="0"
         height="10"
         width="30"
         id="rect837-1-4"
         style="opacity:0.98000004;fill:#000080;fill-opacity:0.96078431;stroke:none;stroke-width:0;stroke-linecap:round;stroke-miterlimit:4;stroke-dasharray:none;stroke-opacity:1" />
    </g>
  </g>
</svg>
